<?xml version="1.0" standalone="no"?>
<!DOCTYPE svg PUBLIC "-//W3C//DTD SVG 20010904//EN"
 "http://www.w3.org/TR/2001/REC-SVG-20010904/DTD/svg10.dtd">
<svg version="1.0" xmlns="http://www.w3.org/2000/svg"
 width="1890.000000pt" height="1417.000000pt" viewBox="0 0 1890.000000 1417.000000"
 preserveAspectRatio="xMidYMid meet">

<g transform="translate(0.000000,1417.000000) scale(0.100000,-0.100000)"
fill="#000000" stroke="none">
<path d="M7598 10640 c-171 -20 -261 -77 -306 -195 l-27 -70 -3 -1470 c-4
-1700 -1 -1762 74 -2022 70 -243 185 -362 419 -432 211 -63 616 -89 792 -51
94 20 148 74 178 174 23 76 35 271 25 394 -15 183 -47 254 -138 305 -47 26
-65 30 -178 37 -102 6 -130 11 -152 27 -60 44 -57 -37 -62 1574 l-5 1475 -38
77 c-42 85 -73 112 -165 147 -91 35 -264 47 -414 30z"/>
<path d="M438 10400 c-206 -29 -299 -126 -320 -332 -5 -49 -7 -826 -5 -1731 3
-1754 1 -1690 50 -1783 56 -108 204 -164 437 -164 176 0 307 32 374 91 18 15
48 61 67 101 l34 73 3 668 3 667 729 0 730 0 0 -562 c0 -599 8 -754 40 -842
54 -143 214 -205 500 -193 245 10 337 56 397 197 l28 65 0 1740 c0 1615 -1
1744 -17 1795 -47 151 -184 214 -468 214 -264 1 -361 -38 -426 -168 -50 -101
-53 -159 -54 -853 l0 -583 -729 0 -730 0 -3 668 c-4 727 -5 731 -62 806 -34
46 -101 85 -185 108 -78 22 -292 32 -393 18z"/>
<path d="M5177 9330 c-338 -53 -612 -196 -873 -455 -280 -278 -407 -576 -421
-985 -9 -278 29 -467 142 -695 79 -161 185 -304 327 -441 214 -206 485 -345
783 -400 146 -28 392 -25 542 4 350 69 653 245 867 502 173 207 273 407 328
657 19 84 22 129 22 318 0 190 -3 234 -22 321 -65 301 -180 514 -392 724 -229
229 -482 370 -780 435 -88 19 -432 29 -523 15z m388 -981 c82 -28 155 -71 220
-131 184 -168 195 -536 22 -726 -55 -59 -170 -134 -249 -162 -80 -27 -208 -37
-279 -20 -119 27 -259 112 -328 200 -143 181 -129 527 28 688 82 84 209 151
324 172 71 12 189 3 262 -21z"/>
<path d="M10267 9330 c-338 -53 -612 -196 -873 -455 -280 -278 -407 -576 -421
-985 -9 -278 29 -468 142 -695 150 -303 403 -557 704 -706 217 -107 419 -154
666 -154 188 0 302 18 477 75 260 85 474 225 646 420 186 212 296 429 354 694
30 137 32 472 5 611 -63 310 -207 572 -429 780 -223 207 -468 339 -748 400
-88 19 -432 29 -523 15z m387 -981 c143 -48 256 -140 311 -252 72 -150 73
-364 0 -507 -58 -114 -194 -220 -342 -266 -187 -59 -392 -3 -544 147 -94 91
-139 210 -139 364 0 180 65 323 188 416 156 119 354 155 526 98z"/>
<path d="M14500 9283 c-143 -22 -222 -74 -272 -178 -15 -33 -28 -69 -28 -81 0
-11 -3 -23 -6 -26 -3 -4 -36 24 -72 62 -56 56 -86 76 -182 123 -129 62 -205
84 -330 93 -225 17 -464 -53 -683 -199 -105 -70 -305 -264 -385 -371 -113
-155 -196 -334 -240 -520 -24 -100 -26 -131 -27 -311 0 -231 17 -334 86 -510
128 -329 411 -639 723 -790 152 -74 239 -96 406 -102 282 -11 484 55 638 206
l65 63 -6 -138 c-9 -207 -49 -326 -148 -437 -92 -103 -191 -147 -334 -147
-193 0 -348 53 -543 186 -110 76 -157 91 -226 75 -66 -15 -130 -65 -238 -185
-124 -137 -179 -256 -178 -385 1 -125 157 -267 445 -406 631 -306 1310 -201
1785 275 144 144 240 299 304 490 73 219 69 133 73 1550 2 746 0 1307 -5 1351
-18 143 -81 242 -178 279 -88 32 -331 51 -444 33z m-669 -962 c123 -39 214
-125 281 -266 31 -67 33 -76 33 -186 0 -113 -1 -116 -38 -193 -169 -340 -612
-367 -823 -49 -101 152 -98 345 7 502 42 63 113 132 164 159 104 54 262 68
376 33z"/>
<path d="M17761 9270 c-161 -25 -258 -102 -297 -237 l-15 -53 -56 61 c-63 68
-156 127 -269 171 -249 96 -551 75 -819 -60 -183 -91 -421 -299 -548 -479
-128 -181 -212 -380 -248 -594 -29 -170 -23 -411 15 -572 65 -280 205 -520
431 -742 288 -282 629 -411 970 -366 213 28 340 84 457 200 l77 77 6 -35 c15
-79 71 -158 137 -192 125 -64 456 -78 609 -25 108 38 170 126 189 268 12 95
12 2179 0 2274 -10 78 -48 175 -83 212 -32 35 -104 69 -172 81 -79 15 -316 22
-384 11z m-681 -976 c143 -40 282 -194 319 -354 74 -323 -207 -630 -531 -580
-110 16 -188 57 -272 143 -155 157 -188 341 -94 533 108 224 336 325 578 258z"/>
</g>
</svg>
